{
  "accessors": [
    {
      "bufferView": 2,
      "componentType": 5126,
      "count": 271,
      "max": [
        0.40963301062583923,
        0.33187100291252136,
        1.5294899940490723
      ],
      "min": [
        0.27358999848365784,
        -0.33170899748802185,
        0.24896100163459778
      ],
      "type": "VEC3"
    },
    {
      "bufferView": 2,
      "byteOffset": 3252,
      "componentType": 5126,
      "count": 271,
      "max": [
        1.0,
        0.99534010887146,
        6.70000008540228e-05
      ],
      "min": [
        0.08774800598621368,
        -0.99534010887146,
        -0.9947758913040161
      ],
      "type": "VEC3"
    },
    {
      "bufferView": 3,
      "componentType": 5126,
      "count": 271,
      "max": [
        0.9953401684761047,
        0.0012113266857340932,
        1.0,
        1.0
      ],
      "min": [
        -0.9947813749313354,
        -0.9999998807907104,
        -0.40090280771255493,
        1.0
      ],
      "type": "VEC4"
    },
    {
      "bufferView": 1,
      "componentType": 5126,
      "count": 271,
      "max": [
        1.9291729927062988,
        0.7488750219345093
      ],
      "min": [
        1.003906011581421,
        0.3051519989967346
      ],
      "type": "VEC2"
    },
    {
      "bufferView": 0,
      "componentType": 5125,
      "count": 1248,
      "type": "SCALAR"
    },
    {
      "bufferView": 2,
      "byteOffset": 6504,
      "componentType": 5126,
      "count": 2161,
      "max": [
        0.3731040060520172,
        0.6097440123558044,
        1.7517290115356445
      ],
      "min": [
        -0.49149999022483826,
        -0.6097440123558044,
        0.04311800003051758
      ],
      "type": "VEC3"
    },
    {
      "bufferView": 2,
      "byteOffset": 32436,
      "componentType": 5126,
      "count": 2161,
      "max": [
        1.0,
        1.0,
        1.0
      ],
      "min": [
        -1.0,
        -1.0,
        -1.0
      ],
      "type": "VEC3"
    },
    {
      "bufferView": 3,
      "byteOffset": 4336,
      "componentType": 5126,
      "count": 2161,
      "max": [
        1.0,
        1.0,
        1.0,
        1.0
      ],
      "min": [
        -1.0,
        -1.0,
        -1.0,
        1.0
      ],
      "type": "VEC4"
    },
    {
      "bufferView": 1,
      "byteOffset": 2168,
      "componentType": 5126,
      "count": 2161,
      "max": [
        1.9661149978637695,
        0.9960939884185791
      ],
      "min": [
        1.003906011581421,
        0.0039059999398887157
      ],
      "type": "VEC2"
    },
    {
      "bufferView": 0,
      "byteOffset": 4992,
      "componentType": 5125,
      "count": 8169,
      "type": "SCALAR"
    },
    {
      "bufferView": 2,
      "byteOffset": 58368,
      "componentType": 5126,
      "count": 9779,
      "max": [
        0.48085901141166687,
        0.5981079936027527,
        1.4162280559539795
      ],
      "min": [
        -0.5155590176582336,
        -0.5981079936027527,
        0.0
      ],
      "type": "VEC3"
    },
    {
      "bufferView": 2,
      "byteOffset": 175716,
      "componentType": 5126,
      "count": 9779,
      "max": [
        1.0,
        1.0,
        1.0
      ],
      "min": [
        -1.0,
        -1.0,
        -1.0
      ],
      "type": "VEC3"
    },
    {
      "bufferView": 3,
      "byteOffset": 38912,
      "componentType": 5126,
      "count": 9779,
      "max": [
        1.0,
        1.0,
        1.0,
        1.0
      ],
      "min": [
        -1.0,
        -1.0,
        -1.0,
        -1.0
      ],
      "type": "VEC4"
    },
    {
      "bufferView": 1,
      "byteOffset": 19456,
      "componentType": 5126,
      "count": 9779,
      "max": [
        0.9959350228309631,
        0.9960939884185791
      ],
      "min": [
        0.0039059999398887157,
        0.0039059999398887157
      ],
      "type": "VEC2"
    },
    {
      "bufferView": 0,
      "byteOffset": 37668,
      "componentType": 5125,
      "count": 32385,
      "type": "SCALAR"
    },
    {
      "bufferView": 2,
      "byteOffset": 293064,
      "componentType": 5126,
      "count": 7709,
      "max": [
        0.48839300870895386,
        0.6213340163230896,
        1.7184109687805176
      ],
      "min": [
        -0.4822239875793457,
        -0.6213340163230896,
        0.0
      ],
      "type": "VEC3"
    },
    {
      "bufferView": 2,
      "byteOffset": 385572,
      "componentType": 5126,
      "count": 7709,
      "max": [
        1.0,
        1.0,
        1.0
      ],
      "min": [
        -1.0,
        -1.0,
        -1.0
      ],
      "type": "VEC3"
    },
    {
      "bufferView": 3,
      "byteOffset": 195376,
      "componentType": 5126,
      "count": 7709,
      "max": [
        1.0,
        1.0,
        1.0,
        1.0
      ],
      "min": [
        -1.0,
        -1.0,
        -1.0,
        1.0
      ],
      "type": "VEC4"
    },
    {
      "bufferView": 1,
      "byteOffset": 97688,
      "componentType": 5126,
      "count": 7709,
      "max": [
        0.9956830143928528,
        0.9848549962043762
      ],
      "min": [
        0.0039059999398887157,
        0.0039059999398887157
      ],
      "type": "VEC2"
    },
    {
      "bufferView": 0,
      "byteOffset": 167208,
      "componentType": 5125,
      "count": 26715,
      "type": "SCALAR"
    }
  ],
  "asset": {
    "extras": {
      "author": "SamTheCaribbean (https://sketchfab.com/SamTheCaribbean)",
      "license": "CC-BY-4.0 (http://creativecommons.org/licenses/by/4.0/)",
      "source": "https://sketchfab.com/3d-models/jukebox-f93f606c43f8454fa428b6c365ac789b",
      "title": "Jukebox"
    },
    "generator": "Sketchfab-14.18.0",
    "version": "2.0"
  },
  "bufferViews": [
    {
      "buffer": 0,
      "byteLength": 274068,
      "name": "floatBufferViews",
      "target": 34963
    },
    {
      "buffer": 0,
      "byteLength": 159360,
      "byteOffset": 274068,
      "byteStride": 8,
      "name": "floatBufferViews",
      "target": 34962
    },
    {
      "buffer": 0,
      "byteLength": 478080,
      "byteOffset": 433428,
      "byteStride": 12,
      "name": "floatBufferViews",
      "target": 34962
    },
    {
      "buffer": 0,
      "byteLength": 318720,
      "byteOffset": 911508,
      "byteStride": 16,
      "name": "floatBufferViews",
      "target": 34962
    }
  ],
  "buffers": [
    {
      "byteLength": 1230228,
      "uri": "scene.bin"
    }
  ],
  "images": [
    {
      "uri": "textures/GLASS_baseColor.png"
    },
    {
      "uri": "textures/GLASS_metallicRoughness.png"
    },
    {
      "uri": "textures/GLASS_normal.png"
    },
    {
      "uri": "textures/red1_baseColor.jpeg"
    },
    {
      "uri": "textures/red1_metallicRoughness.png"
    },
    {
      "uri": "textures/red1_normal.png"
    },
    {
      "uri": "textures/red2_baseColor.jpeg"
    },
    {
      "uri": "textures/red2_metallicRoughness.png"
    },
    {
      "uri": "textures/red2_emissive.jpeg"
    },
    {
      "uri": "textures/red2_normal.png"
    }
  ],
  "materials": [
    {
      "alphaMode": "BLEND",
      "doubleSided": true,
      "name": "GLASS",
      "normalTexture": {
        "index": 2
      },
      "pbrMetallicRoughness": {
        "baseColorFactor": [
          1.0,
          1.0,
          1.0,
          0.3452723544836733
        ],
        "baseColorTexture": {
          "index": 0
        },
        "metallicFactor": 0.0,
        "metallicRoughnessTexture": {
          "index": 1
        }
      }
    },
    {
      "doubleSided": true,
      "name": "red1",
      "normalTexture": {
        "index": 5
      },
      "occlusionTexture": {
        "index": 4
      },
      "pbrMetallicRoughness": {
        "baseColorTexture": {
          "index": 3
        },
        "metallicRoughnessTexture": {
          "index": 4
        }
      }
    },
    {
      "doubleSided": true,
      "emissiveFactor": [
        1.0,
        1.0,
        1.0
      ],
      "emissiveTexture": {
        "index": 8
      },
      "name": "red2",
      "normalTexture": {
        "index": 9
      },
      "occlusionTexture": {
        "index": 7
      },
      "pbrMetallicRoughness": {
        "baseColorTexture": {
          "index": 6
        },
        "metallicRoughnessTexture": {
          "index": 7
        }
      }
    }
  ],
  "meshes": [
    {
      "name": "Object_0",
      "primitives": [
        {
          "attributes": {
            "NORMAL": 1,
            "POSITION": 0,
            "TANGENT": 2,
            "TEXCOORD_0": 3
          },
          "indices": 4,
          "material": 0,
          "mode": 4
        }
      ]
    },
    {
      "name": "Object_1",
      "primitives": [
        {
          "attributes": {
            "NORMAL": 6,
            "POSITION": 5,
            "TANGENT": 7,
            "TEXCOORD_0": 8
          },
          "indices": 9,
          "material": 1,
          "mode": 4
        }
      ]
    },
    {
      "name": "Object_2",
      "primitives": [
        {
          "attributes": {
            "NORMAL": 11,
            "POSITION": 10,
            "TANGENT": 12,
            "TEXCOORD_0": 13
          },
          "indices": 14,
          "material": 2,
          "mode": 4
        }
      ]
    },
    {
      "name": "Object_3",
      "primitives": [
        {
          "attributes": {
            "NORMAL": 16,
            "POSITION": 15,
            "TANGENT": 17,
            "TEXCOORD_0": 18
          },
          "indices": 19,
          "material": 2,
          "mode": 4
        }
      ]
    }
  ],
  "nodes": [
    {
      "children": [
        1
      ],
      "matrix": [
        1.0,
        0.0,
        0.0,
        0.0,
        0.0,
        2.220446049250313e-16,
        -1.0,
        0.0,
        0.0,
        1.0,
        2.220446049250313e-16,
        0.0,
        0.0,
        0.0,
        0.0,
        1.0
      ],
      "name": "Sketchfab_model"
    },
    {
      "children": [
        2,
        3,
        4,
        5
      ],
      "name": "jukeboxx.obj.cleaner.materialmerger.gles"
    },
    {
      "mesh": 0,
      "name": "Object_2"
    },
    {
      "mesh": 1,
      "name": "Object_3"
    },
    {
      "mesh": 2,
      "name": "Object_4"
    },
    {
      "mesh": 3,
      "name": "Object_5"
    }
  ],
  "samplers": [
    {
      "magFilter": 9729,
      "minFilter": 9987,
      "wrapS": 10497,
      "wrapT": 10497
    }
  ],
  "scene": 0,
  "scenes": [
    {
      "name": "Sketchfab_Scene",
      "nodes": [
        0
      ]
    }
  ],
  "textures": [
    {
      "sampler": 0,
      "source": 0
    },
    {
      "sampler": 0,
      "source": 1
    },
    {
      "sampler": 0,
      "source": 2
    },
    {
      "sampler": 0,
      "source": 3
    },
    {
      "sampler": 0,
      "source": 4
    },
    {
      "sampler": 0,
      "source": 5
    },
    {
      "sampler": 0,
      "source": 6
    },
    {
      "sampler": 0,
      "source": 7
    },
    {
      "sampler": 0,
      "source": 8
    },
    {
      "sampler": 0,
      "source": 9
    }
  ]
}
